<svg xmlns="http://www.w3.org/2000/svg" width="19" height="22" viewBox="0 0 19 22">
  <path id="Path_17" data-name="Path 17" d="M20,10.5V6.8a7.453,7.453,0,0,0-.327-3.162,3,3,0,0,0-1.311-1.311A7.453,7.453,0,0,0,15.2,2H8.8a7.453,7.453,0,0,0-3.162.327A3,3,0,0,0,4.327,3.638,7.453,7.453,0,0,0,4,6.8V17.2a7.453,7.453,0,0,0,.327,3.162,3,3,0,0,0,1.311,1.311A7.453,7.453,0,0,0,8.8,22H12m2-11H8m2,4H8m8-8H8M18,21V15m-3,3h6" transform="translate(-3 -1)" fill="none" stroke="#000" stroke-linecap="round" stroke-linejoin="round" stroke-width="2"/>
</svg>
