<svg xmlns="http://www.w3.org/2000/svg" width="18" height="22" viewBox="0 0 18 22">
  <path id="Path_50" data-name="Path 50" d="M12,11v6m0,0L9,14m3,3,3-3M16,4a7.518,7.518,0,0,1,1.777.1A3,3,0,0,1,19.9,6.224,7.52,7.52,0,0,1,20,8v9.2a7.453,7.453,0,0,1-.327,3.162,3,3,0,0,1-1.311,1.311A7.453,7.453,0,0,1,15.2,22H8.8a7.453,7.453,0,0,1-3.162-.327,3,3,0,0,1-1.311-1.311A7.453,7.453,0,0,1,4,17.2V8a7.518,7.518,0,0,1,.1-1.776A3,3,0,0,1,6.224,4.1,7.518,7.518,0,0,1,8,4M9.6,6h4.8a2.484,2.484,0,0,0,1.054-.109,1,1,0,0,0,.437-.437A2.484,2.484,0,0,0,16,4.4V3.6a2.484,2.484,0,0,0-.109-1.054,1,1,0,0,0-.437-.437A2.484,2.484,0,0,0,14.4,2H9.6a2.484,2.484,0,0,0-1.054.109,1,1,0,0,0-.437.437A2.484,2.484,0,0,0,8,3.6v.8a2.484,2.484,0,0,0,.109,1.054,1,1,0,0,0,.437.437A2.484,2.484,0,0,0,9.6,6Z" transform="translate(-3 -1)" fill="none" stroke="#000" stroke-linecap="round" stroke-linejoin="round" stroke-width="2"/>
</svg>
