<svg xmlns="http://www.w3.org/2000/svg" width="21.697" height="20.828" viewBox="0 0 21.697 20.828">
  <path id="Path_3" data-name="Path 3" d="M10.743,5.092A8.588,8.588,0,0,1,12,5c5.105,0,8.455,4.5,9.58,6.287a1.5,1.5,0,0,1,.242.49,1.173,1.173,0,0,1,0,.447,1.51,1.51,0,0,1-.244.492,17.519,17.519,0,0,1-1.363,1.865M6.724,6.715a15.993,15.993,0,0,0-4.3,4.57,1.506,1.506,0,0,0-.243.491,1.173,1.173,0,0,0,0,.447,1.5,1.5,0,0,0,.242.49C3.546,14.5,6.9,19,12,19a9.338,9.338,0,0,0,5.288-1.723M3,3,21,21M9.879,9.879a3,3,0,1,0,4.243,4.243" transform="translate(-1.152 -1.586)" fill="none" stroke="#000" stroke-linecap="round" stroke-linejoin="round" stroke-width="2"/>
</svg>
