<svg xmlns="http://www.w3.org/2000/svg" width="21.697" height="16" viewBox="0 0 21.697 16">
  <g id="Group_1" data-name="Group 1" transform="translate(-1.152 -4)">
    <path id="Path_1" data-name="Path 1" d="M2.42,12.713a1.5,1.5,0,0,1-.242-.49,1.173,1.173,0,0,1,0-.447,1.5,1.5,0,0,1,.242-.49C3.546,9.5,6.9,5,12,5s8.455,4.5,9.58,6.287a1.5,1.5,0,0,1,.242.49,1.174,1.174,0,0,1,0,.447,1.5,1.5,0,0,1-.242.49C20.455,14.5,17.105,19,12,19S3.546,14.5,2.42,12.713Z" fill="none" stroke="#000" stroke-linecap="round" stroke-linejoin="round" stroke-width="2"/>
    <path id="Path_2" data-name="Path 2" d="M12,15a3,3,0,1,0-3-3A3,3,0,0,0,12,15Z" fill="none" stroke="#000" stroke-linecap="round" stroke-linejoin="round" stroke-width="2"/>
  </g>
</svg>
