<svg xmlns="http://www.w3.org/2000/svg" width="20" height="20.734" viewBox="0 0 20 20.734">
  <path id="Path_68" data-name="Path 68" d="M12.982,2.764a2.327,2.327,0,0,0-.721-.462,1,1,0,0,0-.523,0,2.327,2.327,0,0,0-.721.462L4.235,8.039a4.341,4.341,0,0,0-.843.75,2,2,0,0,0-.318.65A4.341,4.341,0,0,0,3,10.565V17.8a4.969,4.969,0,0,0,.218,2.108,2,2,0,0,0,.874.874A4.968,4.968,0,0,0,6.2,21h2a1.242,1.242,0,0,0,.527-.055.5.5,0,0,0,.219-.219A1.242,1.242,0,0,0,9,20.2V13.6a2.484,2.484,0,0,1,.109-1.054,1,1,0,0,1,.437-.437A2.484,2.484,0,0,1,10.6,12h2.8a2.484,2.484,0,0,1,1.054.109,1,1,0,0,1,.437.437A2.484,2.484,0,0,1,15,13.6v6.6a1.242,1.242,0,0,0,.054.527.5.5,0,0,0,.219.219A1.242,1.242,0,0,0,15.8,21h2a4.968,4.968,0,0,0,2.108-.218,2,2,0,0,0,.874-.874A4.969,4.969,0,0,0,21,17.8V10.565a4.343,4.343,0,0,0-.074-1.126,2,2,0,0,0-.318-.65,4.34,4.34,0,0,0-.843-.75Z" transform="translate(-2 -1.266)" fill="none" stroke="#000" stroke-linecap="round" stroke-linejoin="round" stroke-width="2"/>
</svg>
