<svg xmlns="http://www.w3.org/2000/svg" width="19.473" height="22" viewBox="0 0 19.473 22">
  <path id="Path_8" data-name="Path 8" d="M9.354,21a4,4,0,0,0,5.292,0M18,8A6,6,0,1,0,6,8a12.257,12.257,0,0,1-1.65,6.605,8.8,8.8,0,0,0-1.088,1.935.4.4,0,0,0,.2.361,6.8,6.8,0,0,0,1.927.1H18.611a6.8,6.8,0,0,0,1.927-.1.4.4,0,0,0,.2-.361,8.8,8.8,0,0,0-1.088-1.935A12.256,12.256,0,0,1,18,8Z" transform="translate(-2.263 -1)" fill="none" stroke="#000" stroke-linecap="round" stroke-linejoin="round" stroke-width="2"/>
</svg>
