<svg xmlns="http://www.w3.org/2000/svg" width="21.414" height="20" viewBox="0 0 21.414 20">
  <path id="Path_84" data-name="Path 84" d="M9,11l3,3L22,4M16,3H7.8a7.453,7.453,0,0,0-3.162.327A3,3,0,0,0,3.327,4.638,7.453,7.453,0,0,0,3,7.8v8.4a7.453,7.453,0,0,0,.327,3.162,3,3,0,0,0,1.311,1.311A7.453,7.453,0,0,0,7.8,21h8.4a7.453,7.453,0,0,0,3.162-.327,3,3,0,0,0,1.311-1.311A7.453,7.453,0,0,0,21,16.2V12" transform="translate(-2 -2)" fill="none" stroke="#000" stroke-linecap="round" stroke-linejoin="round" stroke-width="2"/>
</svg>
