<svg xmlns="http://www.w3.org/2000/svg" width="21.328" height="21.328" viewBox="0 0 21.328 21.328">
  <path id="Path_90" data-name="Path 90" d="M21,21H13m-10.5.5,5.549-2.134a6.243,6.243,0,0,0,.7-.294,3.005,3.005,0,0,0,.42-.273,6.238,6.238,0,0,0,.552-.519L21,7a2.828,2.828,0,0,0-4-4L5.72,14.28a6.236,6.236,0,0,0-.519.552,3,3,0,0,0-.273.42,6.236,6.236,0,0,0-.294.7Zm0,0,2.058-5.351c.147-.383.221-.574.347-.662a.5.5,0,0,1,.379-.08c.151.029.3.174.586.464L8.13,18.129c.29.29.435.435.464.586a.5.5,0,0,1-.08.379c-.088.126-.279.2-.662.347Z" transform="translate(-1.5 -1.171)" fill="none" stroke="#000" stroke-linecap="round" stroke-linejoin="round" stroke-width="2"/>
</svg>
