<svg xmlns="http://www.w3.org/2000/svg" width="22" height="22" viewBox="0 0 22 22">
  <path id="Path_14" data-name="Path 14" d="M6,6h.01M6,18h.01M5.2,10H18.8a4.969,4.969,0,0,0,2.108-.218,2,2,0,0,0,.874-.874A4.968,4.968,0,0,0,22,6.8V5.2a4.968,4.968,0,0,0-.218-2.108,2,2,0,0,0-.874-.874A4.969,4.969,0,0,0,18.8,2H5.2a4.969,4.969,0,0,0-2.108.218,2,2,0,0,0-.874.874A4.969,4.969,0,0,0,2,5.2V6.8a4.969,4.969,0,0,0,.218,2.108,2,2,0,0,0,.874.874A4.969,4.969,0,0,0,5.2,10Zm0,12H18.8a4.968,4.968,0,0,0,2.108-.218,2,2,0,0,0,.874-.874A4.968,4.968,0,0,0,22,18.8V17.2a4.968,4.968,0,0,0-.218-2.108,2,2,0,0,0-.874-.874A4.968,4.968,0,0,0,18.8,14H5.2a4.968,4.968,0,0,0-2.108.218,2,2,0,0,0-.874.874A4.969,4.969,0,0,0,2,17.2v1.6a4.969,4.969,0,0,0,.218,2.108,2,2,0,0,0,.874.874A4.968,4.968,0,0,0,5.2,22Z" transform="translate(-1 -1)" fill="none" stroke="#000" stroke-linecap="round" stroke-linejoin="round" stroke-width="2"/>
</svg>
