<svg xmlns="http://www.w3.org/2000/svg" width="22" height="22" viewBox="0 0 22 22">
  <g id="Group_14" data-name="Group 14" transform="translate(-1 -1)">
    <path id="Path_74" data-name="Path 74" d="M12,15a3,3,0,1,0-3-3A3,3,0,0,0,12,15Z" fill="none" stroke="#000" stroke-linecap="round" stroke-linejoin="round" stroke-width="2"/>
    <path id="Path_75" data-name="Path 75" d="M18.727,14.727a1.5,1.5,0,0,0,.3,1.655l.055.055a1.819,1.819,0,1,1-2.573,2.573l-.055-.055a1.51,1.51,0,0,0-2.564,1.073v.155a1.818,1.818,0,0,1-3.636,0V20.1a1.5,1.5,0,0,0-.982-1.373,1.5,1.5,0,0,0-1.655.3l-.055.055a1.819,1.819,0,1,1-2.573-2.573l.055-.055a1.51,1.51,0,0,0-1.073-2.564H3.818a1.818,1.818,0,0,1,0-3.636H3.9a1.5,1.5,0,0,0,1.373-.982,1.5,1.5,0,0,0-.3-1.655l-.055-.055A1.819,1.819,0,1,1,7.491,4.991l.055.055a1.5,1.5,0,0,0,1.655.3h.073a1.5,1.5,0,0,0,.909-1.373V3.818a1.818,1.818,0,0,1,3.636,0V3.9a1.51,1.51,0,0,0,2.564,1.073l.055-.055a1.819,1.819,0,1,1,2.573,2.573l-.055.055a1.5,1.5,0,0,0-.3,1.655v.073a1.5,1.5,0,0,0,1.373.909h.155a1.818,1.818,0,0,1,0,3.636H20.1a1.5,1.5,0,0,0-1.373.909Z" fill="none" stroke="#000" stroke-linecap="round" stroke-linejoin="round" stroke-width="2"/>
  </g>
</svg>
