<svg xmlns="http://www.w3.org/2000/svg" width="20.313" height="20" viewBox="0 0 20.313 20">
  <path id="Path_44" data-name="Path 44" d="M16,8A4,4,0,0,1,8,8M3.633,7.4l-.7,8.4c-.15,1.8-.226,2.707.079,3.4a3,3,0,0,0,1.319,1.434C5,21,5.905,21,7.716,21h8.567c1.811,0,2.716,0,3.384-.362A3,3,0,0,0,20.987,19.2c.305-.7.23-1.6.08-3.4l-.7-8.4a7.276,7.276,0,0,0-.538-2.917,3,3,0,0,0-1.294-1.191A7.275,7.275,0,0,0,15.583,3H8.416a7.275,7.275,0,0,0-2.951.294A3,3,0,0,0,4.171,4.485,7.275,7.275,0,0,0,3.633,7.4Z" transform="translate(-1.843 -2)" fill="none" stroke="#000" stroke-linecap="round" stroke-linejoin="round" stroke-width="2"/>
</svg>
