<svg xmlns="http://www.w3.org/2000/svg" width="20" height="20.46" viewBox="0 0 20 20.46">
  <path id="Path_79" data-name="Path 79" d="M8.5,12.5a4.833,4.833,0,0,0,7,0m-.75-5h.01m-5.51,0h.01M7,18v2.336c0,.533,0,.8.109.936a.5.5,0,0,0,.391.188c.175,0,.383-.167.8-.5l2.385-1.908a6.352,6.352,0,0,1,1-.723,3,3,0,0,1,.762-.267A6.346,6.346,0,0,1,13.684,18H16.2a7.453,7.453,0,0,0,3.162-.327,3,3,0,0,0,1.311-1.311A7.453,7.453,0,0,0,21,13.2V7.8a7.453,7.453,0,0,0-.327-3.162,3,3,0,0,0-1.311-1.311A7.453,7.453,0,0,0,16.2,3H7.8a7.453,7.453,0,0,0-3.162.327A3,3,0,0,0,3.327,4.638,7.453,7.453,0,0,0,3,7.8V14a7.518,7.518,0,0,0,.1,1.776A3,3,0,0,0,5.224,17.9,7.52,7.52,0,0,0,7,18ZM15.25,7.5a.5.5,0,1,1-.5-.5A.5.5,0,0,1,15.25,7.5Zm-5.5,0a.5.5,0,1,1-.5-.5A.5.5,0,0,1,9.75,7.5Z" transform="translate(-2 -2)" fill="none" stroke="#000" stroke-linecap="round" stroke-linejoin="round" stroke-width="2"/>
</svg>
