<svg xmlns="http://www.w3.org/2000/svg" width="22" height="18" viewBox="0 0 22 18">
  <path id="Path_83" data-name="Path 83" d="M20,9.5V7.2a4.968,4.968,0,0,0-.218-2.108,2,2,0,0,0-.874-.874A4.969,4.969,0,0,0,16.8,4H5.2a4.969,4.969,0,0,0-2.108.218,2,2,0,0,0-.874.874A4.969,4.969,0,0,0,2,7.2v9.6a4.969,4.969,0,0,0,.218,2.108,2,2,0,0,0,.874.874A4.968,4.968,0,0,0,5.2,20H16.8a4.968,4.968,0,0,0,2.108-.218,2,2,0,0,0,.874-.874A4.968,4.968,0,0,0,20,16.8V14.5M15,12a5.024,5.024,0,0,1,.038-.89A2,2,0,0,1,16.61,9.538,5.02,5.02,0,0,1,17.5,9.5h2a5.02,5.02,0,0,1,.89.038,2,2,0,0,1,1.571,1.571A5.024,5.024,0,0,1,22,12a5.024,5.024,0,0,1-.038.89,2,2,0,0,1-1.571,1.571,5.024,5.024,0,0,1-.89.038h-2a5.024,5.024,0,0,1-.89-.038,2,2,0,0,1-1.571-1.571A5.024,5.024,0,0,1,15,12Z" transform="translate(-1 -3)" fill="none" stroke="#000" stroke-linecap="round" stroke-linejoin="round" stroke-width="2"/>
</svg>
